<svg width="199" height="100" viewBox="0 0 199 100" fill="none" xmlns="http://www.w3.org/2000/svg">
<path d="M113.682 22.321L111.221 20L99.0524 33.2022L97.3688 31.6939L94.9463 34.3043L99.0302 38.1503L113.682 22.321Z" fill="#1D7D4A"/>
<path d="M139.992 54.822C139.992 55.2862 139.992 56.0278 139.992 56.5203C139.992 57.0128 139.849 57.1827 139.345 57.1883C138.606 57.1883 137.868 57.1883 137.135 57.1883C136.665 57.1883 136.562 57.0694 136.517 56.6222C136.517 56.4637 136.517 56.2995 136.517 56.1354V32.1891C136.517 31.1419 136.517 31.1305 137.57 31.1249C138.223 31.1249 138.881 31.1249 139.54 31.1249C140.198 31.1249 140.278 31.2268 140.278 31.8778V40.3694C140.742 39.9787 141.103 39.6221 141.509 39.339C142.525 38.6496 143.712 38.2495 144.942 38.1826C146.172 38.1157 147.397 38.3846 148.483 38.9598C150.25 39.9488 151.568 41.5693 152.165 43.4886C153.248 46.5246 153.148 49.851 151.884 52.818C150.945 55.0145 149.376 56.6335 146.972 57.2223C144.412 57.8507 142.133 57.3242 140.341 55.2919C140.141 55.0598 140.049 54.7937 139.992 54.822ZM149.016 47.8646C149.069 46.5054 148.814 45.1516 148.271 43.9018C147.907 42.9825 147.193 42.2415 146.281 41.839C145.369 41.4365 144.334 41.4048 143.399 41.7507C142.873 41.9502 142.394 42.254 141.991 42.6434C141.588 43.0328 141.27 43.4996 141.057 44.0151C140.374 45.541 140.12 47.2213 140.324 48.8779C140.399 50.0544 140.758 51.196 141.372 52.2066C141.735 52.8149 142.262 53.3115 142.894 53.6409C143.525 53.9703 144.238 54.1196 144.95 54.072C145.663 54.0244 146.348 53.7819 146.93 53.3715C147.511 52.9612 147.966 52.3991 148.243 51.7481C148.79 50.5266 149.054 49.1998 149.016 47.8646V47.8646Z" fill="black"/>
<path d="M129.95 40.4649C129.95 40.0914 129.95 39.7178 129.95 39.333C129.95 38.6539 130.048 38.5577 130.73 38.552C131.412 38.5463 132.208 38.552 132.942 38.552C133.475 38.552 133.583 38.6765 133.589 39.2085C133.589 39.8989 133.589 56.2261 133.589 56.2261C133.589 57.1486 133.543 57.1939 132.626 57.1939C131.99 57.1939 131.354 57.1939 130.718 57.1939C130.237 57.1939 130.145 57.0977 130.094 56.6279C130.042 56.1582 130.031 55.4961 130.008 55.0263C130.008 55.0263 129.79 55.2357 129.641 55.3885C129.117 55.9886 128.477 56.4794 127.759 56.8322C127.041 57.185 126.258 57.3926 125.458 57.4429C121.905 57.7372 119.349 55.7451 118.106 52.7853C117.313 50.7742 117.032 48.6016 117.287 46.4581C117.4 44.8369 117.873 43.2602 118.673 41.8401C119.139 40.9432 119.803 40.1615 120.616 39.5531C121.43 38.9446 122.372 38.5251 123.372 38.3256C124.455 38.0663 125.588 38.0952 126.656 38.4094C127.724 38.7235 128.689 39.3117 129.452 40.114L129.824 40.4875C129.824 40.4875 129.922 40.6007 129.939 40.5894C129.945 40.5481 129.949 40.5066 129.95 40.4649V40.4649ZM120.954 47.9465C120.92 49.3012 121.163 50.6487 121.67 51.9081C121.839 52.3341 122.092 52.7221 122.416 53.0488C122.74 53.3756 123.128 53.6344 123.555 53.8096C124.257 54.101 125.029 54.187 125.778 54.0576C126.528 53.9282 127.224 53.5887 127.784 53.0795C128.229 52.6637 128.601 52.178 128.885 51.6421C129.796 49.8078 130.043 47.7203 129.584 45.7281C129.381 44.6882 128.9 43.721 128.191 42.9267C126.575 41.0817 123.034 40.9176 121.728 43.8435C121.21 45.1448 120.947 46.5314 120.954 47.9295V47.9465Z" fill="black"/>
<path d="M92.5001 37.0415L95.2831 39.5445L89.1827 45.8467C89.4557 46.2993 93.4704 52.9199 95.3006 55.8531C95.7363 56.557 95.5736 56.9314 94.6673 56.8811C93.8565 56.8364 93.0437 56.8364 92.2329 56.8811C92.0277 56.9027 91.8206 56.8599 91.6427 56.7593C91.4647 56.6586 91.3253 56.5054 91.2452 56.3224C89.8276 53.8976 86.5566 48.4559 86.5566 48.4559C86.5566 48.4559 84.3837 50.8024 83.8782 51.3276C83.7623 51.4407 83.6716 51.5753 83.6117 51.7232C83.5517 51.8712 83.5238 52.0293 83.5296 52.188C83.5296 53.4283 83.5296 56.2274 83.5296 56.3838C83.5308 56.4497 83.5175 56.515 83.4904 56.5755C83.4633 56.636 83.4231 56.6902 83.3726 56.7346C83.322 56.779 83.2622 56.8126 83.1971 56.833C83.132 56.8534 83.0631 56.8603 82.9951 56.8532C82.0771 56.8532 81.1649 56.8532 80.247 56.8532C80.1794 56.8605 80.111 56.8537 80.0465 56.8331C79.982 56.8126 79.9228 56.7789 79.8731 56.7343C79.8234 56.6897 79.7844 56.6353 79.7586 56.5748C79.7329 56.5143 79.7211 56.4491 79.7241 56.3838V32.0803C79.7241 31.1584 79.7531 31.1305 80.6943 31.1249C81.4264 31.1249 82.1526 31.1249 82.8847 31.1249C83.4134 31.1249 83.5296 31.2646 83.5528 31.7786C83.5528 31.935 83.5528 46.0423 83.5528 46.2546L92.5001 37.0415Z" fill="black"/>
<path d="M165.568 49.2955C165.801 50.9086 166.246 52.3519 167.585 53.3481C168.333 53.8913 169.245 54.1666 170.171 54.1292C171.428 54.1353 172.653 53.7383 173.664 52.9972C173.744 52.9349 173.835 52.884 173.96 52.8047L176.701 54.7631C175.784 55.7141 174.662 56.4456 173.419 56.9026C171.566 57.5767 169.547 57.654 167.647 57.1233C166.398 56.7854 165.258 56.1318 164.338 55.2262C163.419 54.3206 162.751 53.1939 162.4 51.9557C161.35 48.9767 161.473 45.7139 162.742 42.8205C163.209 41.7399 163.918 40.7798 164.816 40.0134C165.714 39.2471 166.777 38.6948 167.923 38.3988C169.068 38.1028 170.267 38.0709 171.427 38.3056C172.587 38.5402 173.678 39.0353 174.616 39.7528C176.066 40.9976 177.017 42.7194 177.294 44.6034C177.509 45.9433 177.557 47.3044 177.436 48.656C177.402 49.154 177.294 49.2559 176.804 49.2786C176.661 49.3012 165.835 49.2955 165.568 49.2955ZM165.682 45.9958H173.892C173.887 44.8205 173.486 43.6808 172.752 42.7582C171.659 41.513 170.223 41.3546 168.718 41.7111C167.021 42.113 165.659 44.0883 165.682 45.9958V45.9958Z" fill="black"/>
<path d="M77.122 40.9094C77.2526 40.6886 76.9744 40.4168 76.9177 40.3432C75.8218 39.4249 74.5299 38.7689 73.1408 38.4253C71.7517 38.0818 70.3022 38.0599 68.9033 38.3612C68.0635 38.5192 67.2734 38.8743 66.5983 39.3972C65.9233 39.92 65.3826 40.5956 65.0209 41.3681C64.6236 42.1622 64.4486 43.0487 64.5146 43.9338C64.5805 44.8189 64.8849 45.6698 65.3956 46.3966C65.9769 47.1885 66.7751 47.7961 67.6943 48.1463C69.1701 48.7126 72.587 49.8904 73.4384 50.3095C73.6176 50.3832 73.78 50.4924 73.9156 50.6307C74.0512 50.7689 74.1573 50.9332 74.2273 51.1136C74.5906 52.0649 74.4884 53.5655 72.8878 54.0242C71.8421 54.2473 70.7596 54.2356 69.719 53.9897C68.6784 53.7439 67.7057 53.2702 66.8713 52.6028C66.8002 52.5468 66.7122 52.5163 66.6216 52.5163C66.5309 52.5163 66.4429 52.5468 66.3718 52.6028C66.2356 52.7388 64.5669 54.5451 64.5669 54.5451C64.4307 54.8339 64.6123 54.9982 64.9585 55.3039C65.479 55.7204 66.0356 56.0899 66.6216 56.4082C68.7322 57.4032 71.1033 57.7103 73.3986 57.2859C75.8847 56.8442 77.5761 55.3776 77.8996 52.7557C78.0983 51.1928 77.8996 49.7149 76.7644 48.4974C76.1099 47.7977 75.2989 47.2622 74.3976 46.9345C73.2624 46.4985 70.0612 45.4962 69.1474 45.0092C68.8403 44.8935 68.5787 44.6824 68.4009 44.4072C68.2231 44.132 68.1385 43.8071 68.1597 43.4803C68.1334 43.1242 68.2144 42.7683 68.3924 42.4585C68.5705 42.1487 68.8373 41.8991 69.1587 41.7418C69.4665 41.5878 69.7987 41.4882 70.1406 41.4474C71.6905 41.2548 73.2546 41.6733 74.4997 42.6139L74.7608 42.8064C74.8526 42.8742 74.966 42.9064 75.0798 42.897C75.1936 42.8876 75.3001 42.8373 75.3795 42.7555C75.3795 42.7555 77.0426 41.034 77.122 40.9094Z" fill="black"/>
<path d="M155.26 43.9694C155.26 40.0086 155.26 36.046 155.26 32.0815C155.26 31.1808 155.317 31.1305 156.316 31.1249C157.096 31.1249 157.883 31.1249 158.664 31.1249C159.213 31.1249 159.326 31.248 159.351 31.7291C159.351 31.8521 159.351 47.9525 159.351 55.9299C159.351 56.8474 159.307 56.8866 158.302 56.8866C157.521 56.8866 156.74 56.8866 155.96 56.8866C155.429 56.8866 155.285 56.7467 155.254 56.2768C155.248 56.1201 155.26 47.9133 155.26 43.9694Z" fill="black"/>
<path d="M114.853 30.5391H110.755V56.8862H114.853V30.5391Z" fill="black"/>
<path d="M107.827 37.5645H104.314V56.8857H107.827V37.5645Z" fill="black"/>
<path d="M100.801 43.4199H97.2881V56.8863H100.801V43.4199Z" fill="black"/>
<path d="M71.085 78.836C72.573 78.836 74.229 78.332 75.501 77.228L74.109 74.9C73.365 75.5 72.453 75.98 71.469 75.98C69.549 75.98 68.157 74.324 68.157 71.804C68.157 69.26 69.525 67.628 71.613 67.628C72.333 67.628 72.981 67.916 73.653 68.492L75.309 66.236C74.325 65.372 73.077 64.748 71.397 64.748C67.749 64.748 64.557 67.34 64.557 71.804C64.557 76.244 67.389 78.836 71.085 78.836ZM81.6255 78.836C84.9855 78.836 88.0575 76.244 88.0575 71.804C88.0575 67.34 84.9855 64.748 81.6255 64.748C78.2415 64.748 75.1695 67.34 75.1695 71.804C75.1695 76.244 78.2415 78.836 81.6255 78.836ZM81.6255 75.98C79.7775 75.98 78.7695 74.324 78.7695 71.804C78.7695 69.26 79.7775 67.628 81.6255 67.628C83.4495 67.628 84.4575 69.26 84.4575 71.804C84.4575 74.324 83.4495 75.98 81.6255 75.98ZM89.8329 78.5H93.3609V69.26C94.3449 68.3 95.0409 67.772 96.1449 67.772C97.4409 67.772 98.0409 68.468 98.0409 70.58V78.5H101.569V70.124C101.569 66.764 100.297 64.748 97.4169 64.748C95.5929 64.748 94.2009 65.708 93.0489 66.86H92.9769L92.6889 65.084H89.8329V78.5ZM104.008 78.5H107.536V69.26C108.52 68.3 109.216 67.772 110.32 67.772C111.616 67.772 112.216 68.468 112.216 70.58V78.5H115.744V70.124C115.744 66.764 114.472 64.748 111.592 64.748C109.768 64.748 108.376 65.708 107.224 66.86H107.152L106.864 65.084H104.008V78.5ZM124.039 78.836C125.695 78.836 127.375 78.284 128.695 77.372L127.519 75.188C126.535 75.788 125.575 76.124 124.495 76.124C122.503 76.124 121.063 74.996 120.751 72.788H129.055C129.127 72.452 129.199 71.828 129.199 71.156C129.199 67.436 127.303 64.748 123.583 64.748C120.415 64.748 117.343 67.436 117.343 71.804C117.343 76.244 120.271 78.836 124.039 78.836ZM120.703 70.436C120.991 68.468 122.239 67.46 123.655 67.46C125.383 67.46 126.199 68.612 126.199 70.436H120.703ZM136.616 78.836C138.104 78.836 139.76 78.332 141.032 77.228L139.64 74.9C138.896 75.5 137.984 75.98 137 75.98C135.08 75.98 133.688 74.324 133.688 71.804C133.688 69.26 135.056 67.628 137.144 67.628C137.864 67.628 138.512 67.916 139.184 68.492L140.84 66.236C139.856 65.372 138.608 64.748 136.928 64.748C133.28 64.748 130.088 67.34 130.088 71.804C130.088 76.244 132.92 78.836 136.616 78.836ZM146.882 78.836C148.082 78.836 149.018 78.572 149.738 78.332L149.162 75.764C148.778 75.908 148.274 76.076 147.818 76.076C146.642 76.076 145.994 75.356 145.994 73.82V67.844H149.33V65.084H145.994V61.436H143.066L142.682 65.084L140.594 65.228V67.844H142.466V73.82C142.466 76.82 143.69 78.836 146.882 78.836Z" fill="#1D7D4A"/>
<path d="M49.0225 62.2273L42.5225 61.0456" stroke="#1D7D4A" stroke-width="3"/>
<path d="M34.4573 62.8179L28.3667 69.3951" stroke="#1D7D4A" stroke-width="3"/>
<path d="M38.3862 43.9091L37.7952 53.9545" stroke="#1D7D4A" stroke-width="3"/>
<circle cx="37.7952" cy="58.9171" r="5.02272" stroke="#1D7D4A" stroke-width="3"/>
<ellipse cx="26.2724" cy="71.6817" rx="2.95454" ry="2.95454" stroke="#1D7D4A" stroke-width="3"/>
<ellipse cx="52.2724" cy="62.8182" rx="2.95454" ry="2.95454" stroke="#1D7D4A" stroke-width="3"/>
<ellipse cx="24.9545" cy="46.5908" rx="2.95454" ry="2.95454" stroke="#1D7D4A" stroke-width="3"/>
<ellipse cx="45.7724" cy="74.0454" rx="2.95454" ry="2.95454" stroke="#1D7D4A" stroke-width="3"/>
<ellipse cx="38.6816" cy="40.9545" rx="2.95454" ry="2.95454" stroke="#1D7D4A" stroke-width="3"/>
<path d="M43.9998 71.9773L39.5679 63.7046" stroke="#1D7D4A" stroke-width="3"/>
<path d="M33.4998 55.5001L26.4999 48.5001" stroke="#1D7D4A" stroke-width="3"/>
</svg>
